<svg width="80.000488" height="63.999512" viewBox="0 0 80.0005 63.9995" fill="none" xmlns="http://www.w3.org/2000/svg" xmlns:xlink="http://www.w3.org/1999/xlink">
	<desc>
			Created with Pixso.
	</desc>
	<defs/>
	<path id="path" d="M4 36L66.34 36L45.17 57.17C43.61 58.73 43.61 61.26 45.17 62.82C46.73 64.39 49.26 64.39 50.82 62.82L78.82 34.82C80.39 33.26 80.39 30.73 78.82 29.17L50.82 1.17C50.04 0.39 49.02 0 48 0C46.97 0 45.95 0.39 45.17 1.17C43.61 2.73 43.61 5.26 45.17 6.82L66.34 28L4 28C1.79 28 0 29.79 0 32C0 34.2 1.79 36 4 36Z" fill="#FFFFFF" fill-opacity="1.000000" fill-rule="nonzero"/>
</svg>
