<svg width="511.998779" height="513.108826" viewBox="0 0 511.999 513.109" fill="none" xmlns="http://www.w3.org/2000/svg" xmlns:xlink="http://www.w3.org/1999/xlink">
	<desc>
			Created with Pixso.
	</desc>
	<defs/>
	<path id="path" d="M210.48 160.8C210.48 146.19 222.32 134.34 236.93 134.34C251.54 134.34 263.38 146.19 263.38 160.8L263.38 271.68L336.72 303.92C350.08 309.79 356.14 325.39 350.26 338.74C344.38 352.09 328.79 358.15 315.44 352.28L227.64 313.68C217.61 309.92 210.48 300.25 210.48 288.91L210.48 160.8ZM5.4 168.54C4.64 166.29 4.17 163.9 4.04 161.41L0.04 87.92C-0.71 73.37 10.49 60.97 25.04 60.23C39.59 59.48 51.99 70.68 52.73 85.23L53.47 98.83C64.39 84.76 76.66 71.99 90.28 60.51C108.25 45.35 128.66 32.42 151.29 22.33C215.96 -6.52 286.14 -6.45 347.31 16.98C407.86 40.18 459.67 86.25 488.71 149.81C489.48 151.19 490.13 152.64 490.65 154.17C518.51 218.23 518.18 287.5 495.02 347.98C471.82 408.53 425.75 460.34 362.19 489.37C358.18 491.61 353.89 492.73 349.3 492.72C334.69 492.72 322.85 480.88 322.85 466.27C322.85 454.77 330.19 444.99 340.44 441.35C348.13 437.82 355.5 433.88 362.53 429.55C363.33 428.89 364.18 428.27 365.08 427.69C376.41 420.37 387.18 411.99 396.92 402.65C397.56 402.04 398.23 401.46 398.92 400.93C419.58 380.43 435.4 355.87 445.63 329.17C464.29 280.47 464.4 224.71 441.53 173.45C418.66 122.19 377.13 85 328.5 66.37C279.8 47.72 224.04 47.61 172.78 70.47C155.21 78.29 139.08 88.4 124.38 100.8C114.52 109.12 105.58 118.26 97.63 128.09L101.08 127.66C115.57 125.89 128.76 136.21 130.53 150.7C132.3 165.19 121.98 178.38 107.49 180.15L34.43 189.15C20.77 190.81 8.27 181.74 5.4 168.54ZM283.49 511.5C304.37 509.16 314.33 484.57 300.95 468.34C295.24 461.41 286.56 458 277.66 458.92C262.1 460.67 246.53 460.64 230.98 458.79C221.64 457.68 212.53 461.51 206.79 468.96C194.43 485.39 204.24 508.73 224.61 511.31C244.19 513.65 263.89 513.7 283.49 511.5ZM114.75 470.83C122.67 476.09 132.52 476.69 141.07 472.57C159.36 463.51 161.04 438.16 144.08 426.81C131.27 418.36 118.94 407.85 108.47 396.65C98.89 386.45 83.19 385.4 72.36 394.26C70.96 395.4 69.69 396.68 68.55 398.08C67.42 399.49 66.44 401 65.61 402.61C64.78 404.21 64.13 405.89 63.64 407.63C63.16 409.38 62.86 411.15 62.74 412.95C62.62 414.76 62.68 416.56 62.93 418.35C63.18 420.14 63.61 421.88 64.22 423.59C64.83 425.29 65.6 426.91 66.54 428.46C67.48 430 68.57 431.43 69.81 432.76C83.15 446.96 98.47 460.1 114.75 470.83ZM10.93 331.97C13.85 341.41 21.65 348.29 31.34 350.15C50.88 353.78 67.35 335.31 61.47 316.32C56.81 301.32 53.98 286.07 52.83 270.4C51.47 252.07 32.62 240.78 15.77 248.07C5.5 252.72 -0.69 262.85 0.06 274.14C1.48 293.79 5.08 313.14 10.93 331.97Z" fill="#23D1FF" fill-opacity="1.000000" fill-rule="nonzero"/>
</svg>
