<?xml version="1.0" encoding="utf-8"?>
<!-- Svg Vector Icons : http://www.onlinewebfonts.com/icon -->
<!DOCTYPE svg PUBLIC "-//W3C//DTD SVG 1.1//EN" "http://www.w3.org/Graphics/SVG/1.1/DTD/svg11.dtd">
<svg version="1.1" xmlns="http://www.w3.org/2000/svg" xmlns:xlink="http://www.w3.org/1999/xlink" x="0px" y="0px" viewBox="0 0 256 256" enable-background="new 0 0 256 256" xml:space="preserve">
<metadata> Svg Vector Icons : http://www.onlinewebfonts.com/icon </metadata>
<g><g><path fill="#000000" d="M246,123.7l-51.8,51v-22.4h-59.4V97.2h59.4V72.8L246,123.7L246,123.7z M167.6,54.4h-47.9V36.8h47.3c8.7,0,15.8,8.2,15.8,18.2v31.6h-15.3L167.6,54.4L167.6,54.4z M89.9,238.5l-69.3-31.5c-5.9,0-10.6-7.1-10.6-15.8V64.9c0-8.7,4.7-15.8,10.6-15.8l69.3-31.5c5.9,0,10.7,7.1,10.7,15.8v189.4C100.6,231.4,95.8,238.5,89.9,238.5L89.9,238.5z M72.4,109.6c-7.2,0-13.1,5.9-13.1,13.1c0,7.3,5.9,13.1,13.1,13.1c7.3,0,13.1-5.9,13.1-13.1C85.5,115.5,79.6,109.6,72.4,109.6L72.4,109.6z M167.6,160.1h15.3V201c0,10.1-7.1,18.3-15.8,18.3h-47.4v-17.7h47.9V160.1L167.6,160.1z"/></g></g>
</svg>