<svg width="31.000000" height="39.000000" viewBox="0 0 31 39" fill="none" xmlns="http://www.w3.org/2000/svg" xmlns:xlink="http://www.w3.org/1999/xlink">
	<desc>
			Created with Pixso.
	</desc>
	<defs/>
	<path id="path" d="M0 9L4 17.05L4 21.96L0 30L0 9Z" fill="#5B57A2" fill-opacity="1.000000" fill-rule="nonzero"/>
	<path id="path" d="M18 13.63L22.26 11L31 11L18 19L18 13.63Z" fill="#D90751" fill-opacity="1.000000" fill-rule="nonzero"/>
	<path id="path" d="M16.97 8.17L17 19L13 16.18L13 0L16.97 8.17Z" fill="#FAB718" fill-opacity="1.000000" fill-rule="nonzero"/>
	<path id="path" d="M31 10.99L22.05 11L17.65 8.32L13 0L31 10.99Z" fill="#ED6F26" fill-opacity="1.000000" fill-rule="nonzero"/>
	<path id="path" d="M17 29.91L17 24.73L13 22L13 38L17 29.91Z" fill="#63B22F" fill-opacity="1.000000" fill-rule="nonzero"/>
	<path id="path" d="M22.12 27L4.63 16.84L0 9L31 26.98L22.12 27Z" fill="#1487C9" fill-opacity="1.000000" fill-rule="nonzero"/>
	<path id="path" d="M13 39L17.68 30.66L22.04 28.01L31 28L13 39Z" fill="#017F36" fill-opacity="1.000000" fill-rule="nonzero"/>
	<path id="path" d="M0 30L13 21.77L8.62 19L4.56 21.57L0 30Z" fill="#984995" fill-opacity="1.000000" fill-rule="nonzero"/>
</svg>
